<svg fill="none" xmlns="http://www.w3.org/2000/svg" viewBox="0 0 125 30">
  <path d="M106.349 20.635c.452-3.83 2.77-7.55 5.305-7.55 0 0 2.796 0 1.915 5.537a15.016 15.016 0 0 1-.781 3 2.55 2.55 0 0 0-1.952.707c-.298.31-.471.718-.489 1.147a2.361 2.361 0 0 0 .354 1.525 3.841 3.841 0 0 1-2.55 1.317c-1.818 0-2.258-1.854-1.806-5.689l.004.006ZM12.441 1.362c-1.16.56-2.394.948-3.665 1.15a.897.897 0 0 0-.646.586c-.16.464-.83 2.757-1.025 3.354a.857.857 0 0 1-.868.586c-.868-.061-4.173-.476-4.612-.512a.868.868 0 0 0-.83.464 10.247 10.247 0 0 0-.793 4.146.843.843 0 0 0 .684.695c.34.06 3.306.488 3.648.536a.85.85 0 0 1 .684 1.049c-2.563 10.003-2.195 16.537 6.504 16.537 7.223 0 12.688-9.027 15.226-17.627a19.67 19.67 0 0 1 1.817 1.757 1.522 1.522 0 0 1 .05 1.782c-1.833 2.684-8.198 13.017 1.049 14.09 3.368.377 6.235-1.624 8.589-4.527.193 1.915 1.28 4.38 5.613 4.38 3.721 0 6.235-2.843 7.796-5.526-.062.244-1.27 5.526 3.209 5.526 2.245 0 4.635-1.736 6.576-3.685-.147.635-.29 1.27-.44 1.929a1.182 1.182 0 0 0 .793 1.403 6.18 6.18 0 0 0 4.636-.123 1.184 1.184 0 0 0 .646-.816 187.64 187.64 0 0 1 1.757-7.1h.037c.841 4.793 3.709 8.38 8.467 8.38 3.465 0 6.269-2.026 8.53-5.088.56 3.136 2.28 5.246 5.892 5.246 3.477 0 6.295-2.05 8.565-5.123.732 3.44 2.733 5.123 6.71 5.123a13.326 13.326 0 0 0 7.955-2.867c0-.012-.012-.012-.012-.024a6.246 6.246 0 0 1-.696-2.893 6.328 6.328 0 0 1 5.552-6.268h.036c.024-.292.036-.573.037-.841 0-7.613-7.358-7.613-7.358-7.613-6.991 0-12.237 5.441-12.542 11.185-1.736 2.953-3.843 5.295-6.234 5.649-3.929.585-2.894-6.124-.793-13.102a.707.707 0 0 1 .675-.5c1.821.002 3.64-.133 5.44-.403a.713.713 0 0 0 .538-.427c.311-.774.461-1.605.44-2.44a.71.71 0 0 0-.745-.694c-1.269.085-2.61.11-3.94.096a.7.7 0 0 1-.659-.94 39.406 39.406 0 0 1 1.563-4.123.946.946 0 0 0-.538-1.269 7.903 7.903 0 0 0-4.6-.378.953.953 0 0 0-.675.549 30.557 30.557 0 0 0-2.013 5.379.703.703 0 0 1-.72.488c-.72-.048-1.282-.097-1.647-.123a.689.689 0 0 0-.696.378 4.396 4.396 0 0 0-.354 2.575.687.687 0 0 0 .562.573c.289.061.573.11.853.16a.694.694 0 0 1 .562.867 54.278 54.278 0 0 0-1.366 8.246c-1.781 3.074-3.858 4.562-6.296 4.928-2.72.404-4.88-2.561-5.221-6.721v-.012a17.263 17.263 0 0 0 8.749-9.988.954.954 0 0 0-.525-1.171 6.771 6.771 0 0 0-4.745-.061.972.972 0 0 0-.647.708c-1.33 5.892-5.392 7.404-6.198 7.636-.06.024-.354.096-.598.158.988-3.953 4.147-12.369 4.356-12.92a1.002 1.002 0 0 0-.879-1.342 5.45 5.45 0 0 0-2.757 1.11 8.133 8.133 0 0 1-2.478.903.692.692 0 0 0-.525.475 3.21 3.21 0 0 0-.096.329c-.024.062-.037.11-.06.16a162.311 162.311 0 0 0-5.185 16.309c-1.72 2.537-3.563 4.17-4.93 4.17-2.293 0-.096-6.695.648-8.782a.887.887 0 0 0-.354-1.037 6.298 6.298 0 0 0-4.319-.829 1.023 1.023 0 0 0-.78.622c-5.735 13.675-8.577 11.088-8.295 6.99.27-4.16 4.368-9.662 8.407-9.662 2.255.023 4.465.629 6.417 1.757a.999.999 0 0 0 1.11-.086c.42-.326.787-.717 1.086-1.157a1.119 1.119 0 0 0-.048-1.28c-.793-1.05-2.917-3.086-7.638-3.086-5.869 0-14.104 4.99-15.385 12.565-6.698 9.21-9.785 3.635-5.478-2.683 2.282-3.355 3.098-4.725-.793-7.795-3.891-3.07-2.843-3.269-2.843-5.086 0-1.818-3.563-3.55-4.942.475a3.938 3.938 0 0 0 .756 3.965c-1.792 5.636-6.734 14.797-11.639 15.524-3.94.585-2.44-6.466-.354-13.444a.696.696 0 0 1 .675-.499 35.132 35.132 0 0 0 5.454-.403.68.68 0 0 0 .524-.415c.428-1.128.699-2.31.806-3.512a.705.705 0 0 0-.745-.695c-1.269.073-2.61.096-3.941.096a.7.7 0 0 1-.659-.94c.513-1.464 1.342-4.146 1.587-4.821A1.23 1.23 0 0 0 15.813 0h-.101a7.08 7.08 0 0 0-3.266 1.357" style="fill: var(--fill-color, #04183E)"/>
  <path d="M116.233 24.18a4.38 4.38 0 0 0 2.706 4.05 4.386 4.386 0 0 0 5.977-3.194 4.38 4.38 0 0 0-4.299-5.238 4.387 4.387 0 0 0-4.05 2.706 4.387 4.387 0 0 0-.334 1.677Z" style="fill: var(--fill-accent-color, #FE6E46)"/>
</svg>
